<svg xmlns="http://www.w3.org/2000/svg" width="3333" height="3333" viewBox="0 0 3333 3333" version="1.1"><path d="M 259.746 259.754 L 208 311.507 208 1666.507 L 208 3021.507 259.754 3073.254 L 311.507 3125 1666.507 3125 L 3021.507 3125 3073.254 3073.246 L 3125 3021.493 3125 1666.493 L 3125 311.493 3073.246 259.746 L 3021.493 208 1666.493 208 L 311.493 208 259.746 259.754 M 417 1666.500 L 417 2916 625 2916 L 833 2916 833 2603.500 L 833 2291 1145.345 2291 L 1457.690 2291 1458.296 2273.250 C 1460.589 2206.033, 1481.062 2137.774, 1516.954 2077.680 C 1573.478 1983.041, 1666.434 1913.802, 1773 1886.964 C 1850.898 1867.345, 1933.653 1870.729, 2009.142 1896.619 C 2107.742 1930.435, 2190.911 2000.647, 2241.384 2092.680 C 2291.249 2183.606, 2304.897 2293.229, 2278.959 2394.500 C 2262.605 2458.351, 2231.897 2516.340, 2187.947 2566.367 C 2077.280 2692.336, 1903.409 2739.936, 1746.008 2687.354 C 1696.245 2670.730, 1646.551 2643.140, 1609.520 2611.577 C 1573.835 2581.159, 1546.500 2548.324, 1526.002 2511.250 L 1519.782 2500 1280.891 2500 L 1042 2500 1042 2708 L 1042 2916 1979 2916 L 2916 2916 2916 1666.500 L 2916 417 1979 417 L 1042 417 1042 624.844 L 1042 832.688 1058.750 833.303 C 1121.689 835.615, 1188.636 855.039, 1246.500 887.777 C 1258.707 894.684, 1287.386 914, 1297.751 922.296 C 1321.490 941.296, 1341.655 961.320, 1359.164 983.276 C 1369.120 995.761, 1384.349 1018.706, 1391.005 1031.250 L 1396.178 1041 1666.500 1041 L 1936.822 1041 1941.995 1031.250 C 1948.651 1018.706, 1963.880 995.761, 1973.836 983.276 C 1991.345 961.320, 2011.510 941.296, 2035.249 922.296 C 2045.614 914, 2074.293 894.684, 2086.500 887.777 C 2134.285 860.741, 2186.448 843.310, 2242 835.812 C 2256.085 833.911, 2263.184 833.579, 2290.500 833.543 C 2324.292 833.498, 2335.421 834.294, 2361 838.587 C 2450.523 853.614, 2534.775 899.236, 2596.796 966.270 C 2697.981 1075.635, 2733.499 1228.027, 2690.891 1370 C 2674.112 1425.911, 2643.847 1480.188, 2604.466 1525 C 2540.724 1597.530, 2453.058 1646.235, 2358.852 1661.458 C 2337.068 1664.978, 2326.449 1665.950, 2302 1666.664 C 2199.524 1669.654, 2100.588 1634.541, 2020.780 1566.857 C 2014.885 1561.856, 2002.731 1550.281, 1993.772 1541.133 C 1962.144 1508.838, 1937.900 1475.030, 1918.458 1436.111 C 1891.294 1381.732, 1877.518 1327.775, 1874.453 1263.750 L 1873.795 1250 1666.500 1250 L 1459.205 1250 1458.547 1263.750 C 1454.005 1358.629, 1423.750 1439.381, 1365.538 1512 C 1353.414 1527.124, 1326.883 1554.421, 1312.220 1566.857 C 1232.412 1634.541, 1133.476 1669.654, 1031 1666.664 C 1006.551 1665.950, 995.932 1664.978, 974.148 1661.458 C 870.982 1644.787, 777.217 1588.752, 711.508 1504.500 C 702.459 1492.898, 685.615 1467.581, 678.107 1454.300 C 625.725 1361.631, 610.969 1250.808, 637.439 1148.861 C 654.703 1082.372, 687.015 1022.322, 732.763 971.708 C 757.564 944.270, 789.439 918.964, 821.750 901.059 L 833 894.825 833 655.913 L 833 417 625 417 L 417 417 417 1666.500 M 1023.500 1042.588 C 988.839 1046.019, 964.738 1052.374, 940.112 1064.576 C 872.215 1098.218, 834 1164.996, 834 1250 C 834 1286.934, 840.930 1319.411, 855.124 1349 C 881.500 1403.985, 929.521 1440.295, 992.500 1452.873 C 1024.728 1459.310, 1063.729 1458.949, 1095.388 1451.920 C 1169.349 1435.501, 1222.750 1384.501, 1241.513 1312.364 C 1248.071 1287.149, 1250.750 1251.194, 1248.067 1224.395 C 1242.833 1172.119, 1222.505 1128.499, 1188.165 1095.854 C 1159.420 1068.529, 1121.440 1051.026, 1076.545 1044.414 C 1066.852 1042.987, 1031.700 1041.777, 1023.500 1042.588 M 2273 1042.584 C 2271.075 1042.808, 2265.225 1043.479, 2260 1044.075 C 2226.435 1047.903, 2189.117 1061.782, 2164.088 1079.745 C 2119.954 1111.418, 2092.749 1159.919, 2085.415 1220 C 2083.391 1236.581, 2083.937 1272.891, 2086.445 1288.500 C 2099.377 1368.984, 2148.926 1426.650, 2223.850 1448.415 C 2263.128 1459.824, 2311.115 1460.581, 2351.447 1450.425 C 2409.388 1435.836, 2453.244 1400.604, 2477.965 1348.784 C 2492.133 1319.087, 2499 1286.837, 2499 1250 C 2499 1215.837, 2493.121 1185.590, 2481.020 1157.500 C 2454.132 1095.085, 2399.654 1055.212, 2326.500 1044.405 C 2316.900 1042.987, 2280.261 1041.740, 2273 1042.584 M 1842.564 2085.566 C 1783.783 2093.408, 1735.921 2120.676, 1704.739 2164.088 C 1696.694 2175.288, 1683.319 2201.708, 1678.966 2215 C 1670.571 2240.633, 1667.594 2260.306, 1667.541 2290.500 C 1667.470 2330.258, 1673.589 2359.486, 1688.523 2390.732 C 1721.568 2459.866, 1788.970 2499, 1875 2499 C 1976.712 2499, 2052.452 2443.106, 2075.445 2351.078 C 2084.853 2313.425, 2084.867 2268.954, 2075.484 2231.936 C 2055.379 2152.624, 1998.688 2101.211, 1915.500 2086.850 C 1899.541 2084.095, 1858.950 2083.380, 1842.564 2085.566" stroke="none" fill="#ffffff" fill-rule="evenodd"/></svg>